<svg version="1.1" xmlns="http://www.w3.org/2000/svg" xmlns:xlink="http://www.w3.org/1999/xlink" width="1264.44091796875" height="152"><defs/><g><text fill="#eeeeee" stroke="none" font-family="Arial" font-size="24px" font-style="normal" font-weight="normal" text-decoration="none" x="0" y="0">UNREGISTERED</text><text fill="#eeeeee" stroke="none" font-family="Arial" font-size="24px" font-style="normal" font-weight="normal" text-decoration="none" x="0" y="30">UNREGISTERED</text><text fill="#eeeeee" stroke="none" font-family="Arial" font-size="24px" font-style="normal" font-weight="normal" text-decoration="none" x="0" y="60">UNREGISTERED</text><text fill="#eeeeee" stroke="none" font-family="Arial" font-size="24px" font-style="normal" font-weight="normal" text-decoration="none" x="0" y="90">UNREGISTERED</text><text fill="#eeeeee" stroke="none" font-family="Arial" font-size="24px" font-style="normal" font-weight="normal" text-decoration="none" x="0" y="120">UNREGISTERED</text><text fill="#eeeeee" stroke="none" font-family="Arial" font-size="24px" font-style="normal" font-weight="normal" text-decoration="none" x="0" y="150">UNREGISTERED</text><text fill="#eeeeee" stroke="none" font-family="Arial" font-size="24px" font-style="normal" font-weight="normal" text-decoration="none" x="200" y="0">UNREGISTERED</text><text fill="#eeeeee" stroke="none" font-family="Arial" font-size="24px" font-style="normal" font-weight="normal" text-decoration="none" x="200" y="30">UNREGISTERED</text><text fill="#eeeeee" stroke="none" font-family="Arial" font-size="24px" font-style="normal" font-weight="normal" text-decoration="none" x="200" y="60">UNREGISTERED</text><text fill="#eeeeee" stroke="none" font-family="Arial" font-size="24px" font-style="normal" font-weight="normal" text-decoration="none" x="200" y="90">UNREGISTERED</text><text fill="#eeeeee" stroke="none" font-family="Arial" font-size="24px" font-style="normal" font-weight="normal" text-decoration="none" x="200" y="120">UNREGISTERED</text><text fill="#eeeeee" stroke="none" font-family="Arial" font-size="24px" font-style="normal" font-weight="normal" text-decoration="none" x="200" y="150">UNREGISTERED</text><text fill="#eeeeee" stroke="none" font-family="Arial" font-size="24px" font-style="normal" font-weight="normal" text-decoration="none" x="400" y="0">UNREGISTERED</text><text fill="#eeeeee" stroke="none" font-family="Arial" font-size="24px" font-style="normal" font-weight="normal" text-decoration="none" x="400" y="30">UNREGISTERED</text><text fill="#eeeeee" stroke="none" font-family="Arial" font-size="24px" font-style="normal" font-weight="normal" text-decoration="none" x="400" y="60">UNREGISTERED</text><text fill="#eeeeee" stroke="none" font-family="Arial" font-size="24px" font-style="normal" font-weight="normal" text-decoration="none" x="400" y="90">UNREGISTERED</text><text fill="#eeeeee" stroke="none" font-family="Arial" font-size="24px" font-style="normal" font-weight="normal" text-decoration="none" x="400" y="120">UNREGISTERED</text><text fill="#eeeeee" stroke="none" font-family="Arial" font-size="24px" font-style="normal" font-weight="normal" text-decoration="none" x="400" y="150">UNREGISTERED</text><text fill="#eeeeee" stroke="none" font-family="Arial" font-size="24px" font-style="normal" font-weight="normal" text-decoration="none" x="600" y="0">UNREGISTERED</text><text fill="#eeeeee" stroke="none" font-family="Arial" font-size="24px" font-style="normal" font-weight="normal" text-decoration="none" x="600" y="30">UNREGISTERED</text><text fill="#eeeeee" stroke="none" font-family="Arial" font-size="24px" font-style="normal" font-weight="normal" text-decoration="none" x="600" y="60">UNREGISTERED</text><text fill="#eeeeee" stroke="none" font-family="Arial" font-size="24px" font-style="normal" font-weight="normal" text-decoration="none" x="600" y="90">UNREGISTERED</text><text fill="#eeeeee" stroke="none" font-family="Arial" font-size="24px" font-style="normal" font-weight="normal" text-decoration="none" x="600" y="120">UNREGISTERED</text><text fill="#eeeeee" stroke="none" font-family="Arial" font-size="24px" font-style="normal" font-weight="normal" text-decoration="none" x="600" y="150">UNREGISTERED</text><text fill="#eeeeee" stroke="none" font-family="Arial" font-size="24px" font-style="normal" font-weight="normal" text-decoration="none" x="800" y="0">UNREGISTERED</text><text fill="#eeeeee" stroke="none" font-family="Arial" font-size="24px" font-style="normal" font-weight="normal" text-decoration="none" x="800" y="30">UNREGISTERED</text><text fill="#eeeeee" stroke="none" font-family="Arial" font-size="24px" font-style="normal" font-weight="normal" text-decoration="none" x="800" y="60">UNREGISTERED</text><text fill="#eeeeee" stroke="none" font-family="Arial" font-size="24px" font-style="normal" font-weight="normal" text-decoration="none" x="800" y="90">UNREGISTERED</text><text fill="#eeeeee" stroke="none" font-family="Arial" font-size="24px" font-style="normal" font-weight="normal" text-decoration="none" x="800" y="120">UNREGISTERED</text><text fill="#eeeeee" stroke="none" font-family="Arial" font-size="24px" font-style="normal" font-weight="normal" text-decoration="none" x="800" y="150">UNREGISTERED</text><text fill="#eeeeee" stroke="none" font-family="Arial" font-size="24px" font-style="normal" font-weight="normal" text-decoration="none" x="1000" y="0">UNREGISTERED</text><text fill="#eeeeee" stroke="none" font-family="Arial" font-size="24px" font-style="normal" font-weight="normal" text-decoration="none" x="1000" y="30">UNREGISTERED</text><text fill="#eeeeee" stroke="none" font-family="Arial" font-size="24px" font-style="normal" font-weight="normal" text-decoration="none" x="1000" y="60">UNREGISTERED</text><text fill="#eeeeee" stroke="none" font-family="Arial" font-size="24px" font-style="normal" font-weight="normal" text-decoration="none" x="1000" y="90">UNREGISTERED</text><text fill="#eeeeee" stroke="none" font-family="Arial" font-size="24px" font-style="normal" font-weight="normal" text-decoration="none" x="1000" y="120">UNREGISTERED</text><text fill="#eeeeee" stroke="none" font-family="Arial" font-size="24px" font-style="normal" font-weight="normal" text-decoration="none" x="1000" y="150">UNREGISTERED</text><text fill="#eeeeee" stroke="none" font-family="Arial" font-size="24px" font-style="normal" font-weight="normal" text-decoration="none" x="1200" y="0">UNREGISTERED</text><text fill="#eeeeee" stroke="none" font-family="Arial" font-size="24px" font-style="normal" font-weight="normal" text-decoration="none" x="1200" y="30">UNREGISTERED</text><text fill="#eeeeee" stroke="none" font-family="Arial" font-size="24px" font-style="normal" font-weight="normal" text-decoration="none" x="1200" y="60">UNREGISTERED</text><text fill="#eeeeee" stroke="none" font-family="Arial" font-size="24px" font-style="normal" font-weight="normal" text-decoration="none" x="1200" y="90">UNREGISTERED</text><text fill="#eeeeee" stroke="none" font-family="Arial" font-size="24px" font-style="normal" font-weight="normal" text-decoration="none" x="1200" y="120">UNREGISTERED</text><text fill="#eeeeee" stroke="none" font-family="Arial" font-size="24px" font-style="normal" font-weight="normal" text-decoration="none" x="1200" y="150">UNREGISTERED</text><g transform="translate(-6,-134) scale(1,1)"><rect fill="#C0C0C0" stroke="none" x="33" y="151" width="98.44091796875" height="44" opacity="0.2"/></g><g transform="translate(-6,-134) scale(1,1)"><rect fill="#ffffff" stroke="none" x="26" y="144" width="98.44091796875" height="44"/></g><g transform="translate(-6,-134) scale(1,1)"><path fill="none" stroke="#000000" d="M 26 144 L 124.44091796875 144 L 124.44091796875 188 L 26 188 L 26 144 Z Z" stroke-miterlimit="10"/></g><g transform="translate(-6,-134) scale(1,1)"><rect fill="#ffffff" stroke="none" x="16" y="151" width="20" height="10"/></g><g transform="translate(-6,-134) scale(1,1)"><path fill="none" stroke="#000000" d="M 16 151 L 36 151 L 36 161 L 16 161 L 16 151 Z Z" stroke-miterlimit="10"/></g><g transform="translate(-6,-134) scale(1,1)"><rect fill="#ffffff" stroke="none" x="16" y="171" width="20" height="10"/></g><g transform="translate(-6,-134) scale(1,1)"><path fill="none" stroke="#000000" d="M 16 171 L 36 171 L 36 181 L 16 181 L 16 171 Z Z" stroke-miterlimit="10"/></g><g transform="translate(-6,-134) scale(1,1)"><g><path fill="none" stroke="none"/><text fill="#000000" stroke="none" font-family="Arial" font-size="13px" font-style="normal" font-weight="bold" text-decoration="none" x="73.720458984375" y="163.5">UI</text></g></g><g transform="translate(-6,-134) scale(1,1)"><rect fill="#C0C0C0" stroke="none" x="641" y="151" width="98.44091796875" height="44" opacity="0.2"/></g><g transform="translate(-6,-134) scale(1,1)"><rect fill="#ffffff" stroke="none" x="634" y="144" width="98.44091796875" height="44"/></g><g transform="translate(-6,-134) scale(1,1)"><path fill="none" stroke="#000000" d="M 634 144 L 732.44091796875 144 L 732.44091796875 188 L 634 188 L 634 144 Z Z" stroke-miterlimit="10"/></g><g transform="translate(-6,-134) scale(1,1)"><rect fill="#ffffff" stroke="none" x="624" y="151" width="20" height="10"/></g><g transform="translate(-6,-134) scale(1,1)"><path fill="none" stroke="#000000" d="M 624 151 L 644 151 L 644 161 L 624 161 L 624 151 Z Z" stroke-miterlimit="10"/></g><g transform="translate(-6,-134) scale(1,1)"><rect fill="#ffffff" stroke="none" x="624" y="171" width="20" height="10"/></g><g transform="translate(-6,-134) scale(1,1)"><path fill="none" stroke="#000000" d="M 624 171 L 644 171 L 644 181 L 624 181 L 624 171 Z Z" stroke-miterlimit="10"/></g><g transform="translate(-6,-134) scale(1,1)"><g><path fill="none" stroke="none"/><text fill="#000000" stroke="none" font-family="Arial" font-size="13px" font-style="normal" font-weight="bold" text-decoration="none" x="680.27001953125" y="163.5">BL</text></g></g><g transform="translate(-6,-134) scale(1,1)"><rect fill="#C0C0C0" stroke="none" x="1169" y="151" width="98.44091796875" height="44" opacity="0.2"/></g><g transform="translate(-6,-134) scale(1,1)"><rect fill="#ffffff" stroke="none" x="1162" y="144" width="98.44091796875" height="44"/></g><g transform="translate(-6,-134) scale(1,1)"><path fill="none" stroke="#000000" d="M 1162 144 L 1260.44091796875 144 L 1260.44091796875 188 L 1162 188 L 1162 144 Z Z" stroke-miterlimit="10"/></g><g transform="translate(-6,-134) scale(1,1)"><rect fill="#ffffff" stroke="none" x="1152" y="151" width="20" height="10"/></g><g transform="translate(-6,-134) scale(1,1)"><path fill="none" stroke="#000000" d="M 1152 151 L 1172 151 L 1172 161 L 1152 161 L 1152 151 Z Z" stroke-miterlimit="10"/></g><g transform="translate(-6,-134) scale(1,1)"><rect fill="#ffffff" stroke="none" x="1152" y="171" width="20" height="10"/></g><g transform="translate(-6,-134) scale(1,1)"><path fill="none" stroke="#000000" d="M 1152 171 L 1172 171 L 1172 181 L 1152 181 L 1152 171 Z Z" stroke-miterlimit="10"/></g><g transform="translate(-6,-134) scale(1,1)"><g><path fill="none" stroke="none"/><text fill="#000000" stroke="none" font-family="Arial" font-size="13px" font-style="normal" font-weight="bold" text-decoration="none" x="1182.260498046875" y="163.5">Persistence</text></g></g><g transform="translate(-6,-134) scale(1,1)"><path fill="#C0C0C0" stroke="none" d="M 342.7099609375 170.5 C 342.7099609375 164.1487248 347.8586857375 159 354.2099609375 159 C 360.5612361375 159 365.7099609375 164.1487248 365.7099609375 170.5 C 365.7099609375 176.8512752 360.5612361375 182 354.2099609375 182 C 347.8586857375 182 342.7099609375 176.8512752 342.7099609375 170.5 Z" opacity="0.2"/></g><g transform="translate(-6,-134) scale(1,1)"><path fill="none" stroke="#000000" d="M 350.63661930919363 152.0901420724191 A 11.5 11.5 0 0 1 343.36338069080637 173.9098579275809" stroke-miterlimit="10"/></g><g transform="translate(-6,-134) scale(1,1)"><path fill="none" stroke="#000000" d="M 352.9966751087207 153.18725891300247 A 11.5 11.5 0 0 1 341.0033248912793 172.81274108699753" stroke-miterlimit="10"/></g><g transform="translate(-6,-134) scale(1,1)"><path fill="#ffffff" stroke="none" d="M 338.7099609375 163.5 C 338.7099609375 158.8055792 342.5155401375 155 347.2099609375 155 C 351.9043817375 155 355.7099609375 158.8055792 355.7099609375 163.5 C 355.7099609375 168.1944208 351.9043817375 172 347.2099609375 172 C 342.5155401375 172 338.7099609375 168.1944208 338.7099609375 163.5 Z"/></g><g transform="translate(-6,-134) scale(1,1)"><path fill="none" stroke="#000000" d="M 338.7099609375 163.5 C 338.7099609375 158.8055792 342.5155401375 155 347.2099609375 155 C 351.9043817375 155 355.7099609375 158.8055792 355.7099609375 163.5 C 355.7099609375 168.1944208 351.9043817375 172 347.2099609375 172 C 342.5155401375 172 338.7099609375 168.1944208 338.7099609375 163.5 Z" stroke-miterlimit="10"/></g><g transform="translate(-6,-134) scale(1,1)"><g><path fill="none" stroke="none"/><text fill="#000000" stroke="none" font-family="Arial" font-size="13px" font-style="normal" font-weight="bold" text-decoration="none" x="325.529541015625" y="194.5">Facade</text></g></g><g transform="translate(-6,-134) scale(1,1)"><path fill="none" stroke="#000000" d="M 125 168 L 335.7099609375 166.76334635416666" stroke-miterlimit="10"/></g><g transform="translate(-6,-134) scale(1,1)"><path fill="none" stroke="#000000" d="M 623 168 L 358.7099609375 166.9033203125" stroke-miterlimit="10"/></g><g transform="translate(-6,-134) scale(1,1)"><path fill="#C0C0C0" stroke="none" d="M 930.6181640625 170.5 C 930.6181640625 164.1487248 935.7668888625 159 942.1181640625 159 C 948.4694392625 159 953.6181640625 164.1487248 953.6181640625 170.5 C 953.6181640625 176.8512752 948.4694392625 182 942.1181640625 182 C 935.7668888625 182 930.6181640625 176.8512752 930.6181640625 170.5 Z" opacity="0.2"/></g><g transform="translate(-6,-134) scale(1,1)"><path fill="none" stroke="#000000" d="M 937.568825797788 151.79057833692485 A 11.5 11.5 0 0 1 932.431174202212 174.20942166307515" stroke-miterlimit="10"/></g><g transform="translate(-6,-134) scale(1,1)"><path fill="#ffffff" stroke="none" d="M 926.6181640625 163.5 C 926.6181640625 158.8055792 930.4237432625 155 935.1181640625 155 C 939.8125848625 155 943.6181640625 158.8055792 943.6181640625 163.5 C 943.6181640625 168.1944208 939.8125848625 172 935.1181640625 172 C 930.4237432625 172 926.6181640625 168.1944208 926.6181640625 163.5 Z"/></g><g transform="translate(-6,-134) scale(1,1)"><path fill="none" stroke="#000000" d="M 926.6181640625 163.5 C 926.6181640625 158.8055792 930.4237432625 155 935.1181640625 155 C 939.8125848625 155 943.6181640625 158.8055792 943.6181640625 163.5 C 943.6181640625 168.1944208 939.8125848625 172 935.1181640625 172 C 930.4237432625 172 926.6181640625 168.1944208 926.6181640625 163.5 Z" stroke-miterlimit="10"/></g><g transform="translate(-6,-134) scale(1,1)"><g><path fill="none" stroke="none"/><text fill="#000000" stroke="none" font-family="Arial" font-size="13px" font-style="normal" font-weight="bold" text-decoration="none" x="895.385009765625" y="194.5">Abstract DAO</text></g></g><g transform="translate(-6,-134) scale(1,1)"><path fill="none" stroke="#000000" d="M 733 168 L 923.6181640625 165.60833740234375" stroke-miterlimit="10"/></g><g transform="translate(-6,-134) scale(1,1)"><path fill="none" stroke="#000000" d="M 1151 168 L 946.6181640625 165.6624959309896" stroke-miterlimit="10"/></g><g transform="translate(-6,-134) scale(1,1)"><rect fill="#C0C0C0" stroke="none" x="641" y="239" width="98.44091796875" height="44" opacity="0.2"/></g><g transform="translate(-6,-134) scale(1,1)"><rect fill="#ffffff" stroke="none" x="634" y="232" width="98.44091796875" height="44"/></g><g transform="translate(-6,-134) scale(1,1)"><path fill="none" stroke="#000000" d="M 634 232 L 732.44091796875 232 L 732.44091796875 276 L 634 276 L 634 232 Z Z" stroke-miterlimit="10"/></g><g transform="translate(-6,-134) scale(1,1)"><rect fill="#ffffff" stroke="none" x="624" y="239" width="20" height="10"/></g><g transform="translate(-6,-134) scale(1,1)"><path fill="none" stroke="#000000" d="M 624 239 L 644 239 L 644 249 L 624 249 L 624 239 Z Z" stroke-miterlimit="10"/></g><g transform="translate(-6,-134) scale(1,1)"><rect fill="#ffffff" stroke="none" x="624" y="259" width="20" height="10"/></g><g transform="translate(-6,-134) scale(1,1)"><path fill="none" stroke="#000000" d="M 624 259 L 644 259 L 644 269 L 624 269 L 624 259 Z Z" stroke-miterlimit="10"/></g><g transform="translate(-6,-134) scale(1,1)"><g><path fill="none" stroke="none"/><text fill="#000000" stroke="none" font-family="Arial" font-size="13px" font-style="normal" font-weight="bold" text-decoration="none" x="674.490478515625" y="251.5">Chat</text></g></g><g transform="translate(-6,-134) scale(1,1)"><path fill="none" stroke="#000000" d="M 733 237 L 923.6181640625 169.639404296875" stroke-miterlimit="10"/></g><g transform="translate(-6,-134) scale(1,1)"><path fill="none" stroke="#000000" d="M 623 241 L 358.7099609375 170.15608723958334" stroke-miterlimit="10"/></g></g></svg>