<svg version="1.1" xmlns="http://www.w3.org/2000/svg" xmlns:xlink="http://www.w3.org/1999/xlink" width="1335" height="647"><defs/><g><text fill="#eeeeee" stroke="none" font-family="Arial" font-size="24px" font-style="normal" font-weight="normal" text-decoration="none" x="0" y="0">UNREGISTERED</text><text fill="#eeeeee" stroke="none" font-family="Arial" font-size="24px" font-style="normal" font-weight="normal" text-decoration="none" x="0" y="30">UNREGISTERED</text><text fill="#eeeeee" stroke="none" font-family="Arial" font-size="24px" font-style="normal" font-weight="normal" text-decoration="none" x="0" y="60">UNREGISTERED</text><text fill="#eeeeee" stroke="none" font-family="Arial" font-size="24px" font-style="normal" font-weight="normal" text-decoration="none" x="0" y="90">UNREGISTERED</text><text fill="#eeeeee" stroke="none" font-family="Arial" font-size="24px" font-style="normal" font-weight="normal" text-decoration="none" x="0" y="120">UNREGISTERED</text><text fill="#eeeeee" stroke="none" font-family="Arial" font-size="24px" font-style="normal" font-weight="normal" text-decoration="none" x="0" y="150">UNREGISTERED</text><text fill="#eeeeee" stroke="none" font-family="Arial" font-size="24px" font-style="normal" font-weight="normal" text-decoration="none" x="0" y="180">UNREGISTERED</text><text fill="#eeeeee" stroke="none" font-family="Arial" font-size="24px" font-style="normal" font-weight="normal" text-decoration="none" x="0" y="210">UNREGISTERED</text><text fill="#eeeeee" stroke="none" font-family="Arial" font-size="24px" font-style="normal" font-weight="normal" text-decoration="none" x="0" y="240">UNREGISTERED</text><text fill="#eeeeee" stroke="none" font-family="Arial" font-size="24px" font-style="normal" font-weight="normal" text-decoration="none" x="0" y="270">UNREGISTERED</text><text fill="#eeeeee" stroke="none" font-family="Arial" font-size="24px" font-style="normal" font-weight="normal" text-decoration="none" x="0" y="300">UNREGISTERED</text><text fill="#eeeeee" stroke="none" font-family="Arial" font-size="24px" font-style="normal" font-weight="normal" text-decoration="none" x="0" y="330">UNREGISTERED</text><text fill="#eeeeee" stroke="none" font-family="Arial" font-size="24px" font-style="normal" font-weight="normal" text-decoration="none" x="0" y="360">UNREGISTERED</text><text fill="#eeeeee" stroke="none" font-family="Arial" font-size="24px" font-style="normal" font-weight="normal" text-decoration="none" x="0" y="390">UNREGISTERED</text><text fill="#eeeeee" stroke="none" font-family="Arial" font-size="24px" font-style="normal" font-weight="normal" text-decoration="none" x="0" y="420">UNREGISTERED</text><text fill="#eeeeee" stroke="none" font-family="Arial" font-size="24px" font-style="normal" font-weight="normal" text-decoration="none" x="0" y="450">UNREGISTERED</text><text fill="#eeeeee" stroke="none" font-family="Arial" font-size="24px" font-style="normal" font-weight="normal" text-decoration="none" x="0" y="480">UNREGISTERED</text><text fill="#eeeeee" stroke="none" font-family="Arial" font-size="24px" font-style="normal" font-weight="normal" text-decoration="none" x="0" y="510">UNREGISTERED</text><text fill="#eeeeee" stroke="none" font-family="Arial" font-size="24px" font-style="normal" font-weight="normal" text-decoration="none" x="0" y="540">UNREGISTERED</text><text fill="#eeeeee" stroke="none" font-family="Arial" font-size="24px" font-style="normal" font-weight="normal" text-decoration="none" x="0" y="570">UNREGISTERED</text><text fill="#eeeeee" stroke="none" font-family="Arial" font-size="24px" font-style="normal" font-weight="normal" text-decoration="none" x="0" y="600">UNREGISTERED</text><text fill="#eeeeee" stroke="none" font-family="Arial" font-size="24px" font-style="normal" font-weight="normal" text-decoration="none" x="0" y="630">UNREGISTERED</text><text fill="#eeeeee" stroke="none" font-family="Arial" font-size="24px" font-style="normal" font-weight="normal" text-decoration="none" x="200" y="0">UNREGISTERED</text><text fill="#eeeeee" stroke="none" font-family="Arial" font-size="24px" font-style="normal" font-weight="normal" text-decoration="none" x="200" y="30">UNREGISTERED</text><text fill="#eeeeee" stroke="none" font-family="Arial" font-size="24px" font-style="normal" font-weight="normal" text-decoration="none" x="200" y="60">UNREGISTERED</text><text fill="#eeeeee" stroke="none" font-family="Arial" font-size="24px" font-style="normal" font-weight="normal" text-decoration="none" x="200" y="90">UNREGISTERED</text><text fill="#eeeeee" stroke="none" font-family="Arial" font-size="24px" font-style="normal" font-weight="normal" text-decoration="none" x="200" y="120">UNREGISTERED</text><text fill="#eeeeee" stroke="none" font-family="Arial" font-size="24px" font-style="normal" font-weight="normal" text-decoration="none" x="200" y="150">UNREGISTERED</text><text fill="#eeeeee" stroke="none" font-family="Arial" font-size="24px" font-style="normal" font-weight="normal" text-decoration="none" x="200" y="180">UNREGISTERED</text><text fill="#eeeeee" stroke="none" font-family="Arial" font-size="24px" font-style="normal" font-weight="normal" text-decoration="none" x="200" y="210">UNREGISTERED</text><text fill="#eeeeee" stroke="none" font-family="Arial" font-size="24px" font-style="normal" font-weight="normal" text-decoration="none" x="200" y="240">UNREGISTERED</text><text fill="#eeeeee" stroke="none" font-family="Arial" font-size="24px" font-style="normal" font-weight="normal" text-decoration="none" x="200" y="270">UNREGISTERED</text><text fill="#eeeeee" stroke="none" font-family="Arial" font-size="24px" font-style="normal" font-weight="normal" text-decoration="none" x="200" y="300">UNREGISTERED</text><text fill="#eeeeee" stroke="none" font-family="Arial" font-size="24px" font-style="normal" font-weight="normal" text-decoration="none" x="200" y="330">UNREGISTERED</text><text fill="#eeeeee" stroke="none" font-family="Arial" font-size="24px" font-style="normal" font-weight="normal" text-decoration="none" x="200" y="360">UNREGISTERED</text><text fill="#eeeeee" stroke="none" font-family="Arial" font-size="24px" font-style="normal" font-weight="normal" text-decoration="none" x="200" y="390">UNREGISTERED</text><text fill="#eeeeee" stroke="none" font-family="Arial" font-size="24px" font-style="normal" font-weight="normal" text-decoration="none" x="200" y="420">UNREGISTERED</text><text fill="#eeeeee" stroke="none" font-family="Arial" font-size="24px" font-style="normal" font-weight="normal" text-decoration="none" x="200" y="450">UNREGISTERED</text><text fill="#eeeeee" stroke="none" font-family="Arial" font-size="24px" font-style="normal" font-weight="normal" text-decoration="none" x="200" y="480">UNREGISTERED</text><text fill="#eeeeee" stroke="none" font-family="Arial" font-size="24px" font-style="normal" font-weight="normal" text-decoration="none" x="200" y="510">UNREGISTERED</text><text fill="#eeeeee" stroke="none" font-family="Arial" font-size="24px" font-style="normal" font-weight="normal" text-decoration="none" x="200" y="540">UNREGISTERED</text><text fill="#eeeeee" stroke="none" font-family="Arial" font-size="24px" font-style="normal" font-weight="normal" text-decoration="none" x="200" y="570">UNREGISTERED</text><text fill="#eeeeee" stroke="none" font-family="Arial" font-size="24px" font-style="normal" font-weight="normal" text-decoration="none" x="200" y="600">UNREGISTERED</text><text fill="#eeeeee" stroke="none" font-family="Arial" font-size="24px" font-style="normal" font-weight="normal" text-decoration="none" x="200" y="630">UNREGISTERED</text><text fill="#eeeeee" stroke="none" font-family="Arial" font-size="24px" font-style="normal" font-weight="normal" text-decoration="none" x="400" y="0">UNREGISTERED</text><text fill="#eeeeee" stroke="none" font-family="Arial" font-size="24px" font-style="normal" font-weight="normal" text-decoration="none" x="400" y="30">UNREGISTERED</text><text fill="#eeeeee" stroke="none" font-family="Arial" font-size="24px" font-style="normal" font-weight="normal" text-decoration="none" x="400" y="60">UNREGISTERED</text><text fill="#eeeeee" stroke="none" font-family="Arial" font-size="24px" font-style="normal" font-weight="normal" text-decoration="none" x="400" y="90">UNREGISTERED</text><text fill="#eeeeee" stroke="none" font-family="Arial" font-size="24px" font-style="normal" font-weight="normal" text-decoration="none" x="400" y="120">UNREGISTERED</text><text fill="#eeeeee" stroke="none" font-family="Arial" font-size="24px" font-style="normal" font-weight="normal" text-decoration="none" x="400" y="150">UNREGISTERED</text><text fill="#eeeeee" stroke="none" font-family="Arial" font-size="24px" font-style="normal" font-weight="normal" text-decoration="none" x="400" y="180">UNREGISTERED</text><text fill="#eeeeee" stroke="none" font-family="Arial" font-size="24px" font-style="normal" font-weight="normal" text-decoration="none" x="400" y="210">UNREGISTERED</text><text fill="#eeeeee" stroke="none" font-family="Arial" font-size="24px" font-style="normal" font-weight="normal" text-decoration="none" x="400" y="240">UNREGISTERED</text><text fill="#eeeeee" stroke="none" font-family="Arial" font-size="24px" font-style="normal" font-weight="normal" text-decoration="none" x="400" y="270">UNREGISTERED</text><text fill="#eeeeee" stroke="none" font-family="Arial" font-size="24px" font-style="normal" font-weight="normal" text-decoration="none" x="400" y="300">UNREGISTERED</text><text fill="#eeeeee" stroke="none" font-family="Arial" font-size="24px" font-style="normal" font-weight="normal" text-decoration="none" x="400" y="330">UNREGISTERED</text><text fill="#eeeeee" stroke="none" font-family="Arial" font-size="24px" font-style="normal" font-weight="normal" text-decoration="none" x="400" y="360">UNREGISTERED</text><text fill="#eeeeee" stroke="none" font-family="Arial" font-size="24px" font-style="normal" font-weight="normal" text-decoration="none" x="400" y="390">UNREGISTERED</text><text fill="#eeeeee" stroke="none" font-family="Arial" font-size="24px" font-style="normal" font-weight="normal" text-decoration="none" x="400" y="420">UNREGISTERED</text><text fill="#eeeeee" stroke="none" font-family="Arial" font-size="24px" font-style="normal" font-weight="normal" text-decoration="none" x="400" y="450">UNREGISTERED</text><text fill="#eeeeee" stroke="none" font-family="Arial" font-size="24px" font-style="normal" font-weight="normal" text-decoration="none" x="400" y="480">UNREGISTERED</text><text fill="#eeeeee" stroke="none" font-family="Arial" font-size="24px" font-style="normal" font-weight="normal" text-decoration="none" x="400" y="510">UNREGISTERED</text><text fill="#eeeeee" stroke="none" font-family="Arial" font-size="24px" font-style="normal" font-weight="normal" text-decoration="none" x="400" y="540">UNREGISTERED</text><text fill="#eeeeee" stroke="none" font-family="Arial" font-size="24px" font-style="normal" font-weight="normal" text-decoration="none" x="400" y="570">UNREGISTERED</text><text fill="#eeeeee" stroke="none" font-family="Arial" font-size="24px" font-style="normal" font-weight="normal" text-decoration="none" x="400" y="600">UNREGISTERED</text><text fill="#eeeeee" stroke="none" font-family="Arial" font-size="24px" font-style="normal" font-weight="normal" text-decoration="none" x="400" y="630">UNREGISTERED</text><text fill="#eeeeee" stroke="none" font-family="Arial" font-size="24px" font-style="normal" font-weight="normal" text-decoration="none" x="600" y="0">UNREGISTERED</text><text fill="#eeeeee" stroke="none" font-family="Arial" font-size="24px" font-style="normal" font-weight="normal" text-decoration="none" x="600" y="30">UNREGISTERED</text><text fill="#eeeeee" stroke="none" font-family="Arial" font-size="24px" font-style="normal" font-weight="normal" text-decoration="none" x="600" y="60">UNREGISTERED</text><text fill="#eeeeee" stroke="none" font-family="Arial" font-size="24px" font-style="normal" font-weight="normal" text-decoration="none" x="600" y="90">UNREGISTERED</text><text fill="#eeeeee" stroke="none" font-family="Arial" font-size="24px" font-style="normal" font-weight="normal" text-decoration="none" x="600" y="120">UNREGISTERED</text><text fill="#eeeeee" stroke="none" font-family="Arial" font-size="24px" font-style="normal" font-weight="normal" text-decoration="none" x="600" y="150">UNREGISTERED</text><text fill="#eeeeee" stroke="none" font-family="Arial" font-size="24px" font-style="normal" font-weight="normal" text-decoration="none" x="600" y="180">UNREGISTERED</text><text fill="#eeeeee" stroke="none" font-family="Arial" font-size="24px" font-style="normal" font-weight="normal" text-decoration="none" x="600" y="210">UNREGISTERED</text><text fill="#eeeeee" stroke="none" font-family="Arial" font-size="24px" font-style="normal" font-weight="normal" text-decoration="none" x="600" y="240">UNREGISTERED</text><text fill="#eeeeee" stroke="none" font-family="Arial" font-size="24px" font-style="normal" font-weight="normal" text-decoration="none" x="600" y="270">UNREGISTERED</text><text fill="#eeeeee" stroke="none" font-family="Arial" font-size="24px" font-style="normal" font-weight="normal" text-decoration="none" x="600" y="300">UNREGISTERED</text><text fill="#eeeeee" stroke="none" font-family="Arial" font-size="24px" font-style="normal" font-weight="normal" text-decoration="none" x="600" y="330">UNREGISTERED</text><text fill="#eeeeee" stroke="none" font-family="Arial" font-size="24px" font-style="normal" font-weight="normal" text-decoration="none" x="600" y="360">UNREGISTERED</text><text fill="#eeeeee" stroke="none" font-family="Arial" font-size="24px" font-style="normal" font-weight="normal" text-decoration="none" x="600" y="390">UNREGISTERED</text><text fill="#eeeeee" stroke="none" font-family="Arial" font-size="24px" font-style="normal" font-weight="normal" text-decoration="none" x="600" y="420">UNREGISTERED</text><text fill="#eeeeee" stroke="none" font-family="Arial" font-size="24px" font-style="normal" font-weight="normal" text-decoration="none" x="600" y="450">UNREGISTERED</text><text fill="#eeeeee" stroke="none" font-family="Arial" font-size="24px" font-style="normal" font-weight="normal" text-decoration="none" x="600" y="480">UNREGISTERED</text><text fill="#eeeeee" stroke="none" font-family="Arial" font-size="24px" font-style="normal" font-weight="normal" text-decoration="none" x="600" y="510">UNREGISTERED</text><text fill="#eeeeee" stroke="none" font-family="Arial" font-size="24px" font-style="normal" font-weight="normal" text-decoration="none" x="600" y="540">UNREGISTERED</text><text fill="#eeeeee" stroke="none" font-family="Arial" font-size="24px" font-style="normal" font-weight="normal" text-decoration="none" x="600" y="570">UNREGISTERED</text><text fill="#eeeeee" stroke="none" font-family="Arial" font-size="24px" font-style="normal" font-weight="normal" text-decoration="none" x="600" y="600">UNREGISTERED</text><text fill="#eeeeee" stroke="none" font-family="Arial" font-size="24px" font-style="normal" font-weight="normal" text-decoration="none" x="600" y="630">UNREGISTERED</text><text fill="#eeeeee" stroke="none" font-family="Arial" font-size="24px" font-style="normal" font-weight="normal" text-decoration="none" x="800" y="0">UNREGISTERED</text><text fill="#eeeeee" stroke="none" font-family="Arial" font-size="24px" font-style="normal" font-weight="normal" text-decoration="none" x="800" y="30">UNREGISTERED</text><text fill="#eeeeee" stroke="none" font-family="Arial" font-size="24px" font-style="normal" font-weight="normal" text-decoration="none" x="800" y="60">UNREGISTERED</text><text fill="#eeeeee" stroke="none" font-family="Arial" font-size="24px" font-style="normal" font-weight="normal" text-decoration="none" x="800" y="90">UNREGISTERED</text><text fill="#eeeeee" stroke="none" font-family="Arial" font-size="24px" font-style="normal" font-weight="normal" text-decoration="none" x="800" y="120">UNREGISTERED</text><text fill="#eeeeee" stroke="none" font-family="Arial" font-size="24px" font-style="normal" font-weight="normal" text-decoration="none" x="800" y="150">UNREGISTERED</text><text fill="#eeeeee" stroke="none" font-family="Arial" font-size="24px" font-style="normal" font-weight="normal" text-decoration="none" x="800" y="180">UNREGISTERED</text><text fill="#eeeeee" stroke="none" font-family="Arial" font-size="24px" font-style="normal" font-weight="normal" text-decoration="none" x="800" y="210">UNREGISTERED</text><text fill="#eeeeee" stroke="none" font-family="Arial" font-size="24px" font-style="normal" font-weight="normal" text-decoration="none" x="800" y="240">UNREGISTERED</text><text fill="#eeeeee" stroke="none" font-family="Arial" font-size="24px" font-style="normal" font-weight="normal" text-decoration="none" x="800" y="270">UNREGISTERED</text><text fill="#eeeeee" stroke="none" font-family="Arial" font-size="24px" font-style="normal" font-weight="normal" text-decoration="none" x="800" y="300">UNREGISTERED</text><text fill="#eeeeee" stroke="none" font-family="Arial" font-size="24px" font-style="normal" font-weight="normal" text-decoration="none" x="800" y="330">UNREGISTERED</text><text fill="#eeeeee" stroke="none" font-family="Arial" font-size="24px" font-style="normal" font-weight="normal" text-decoration="none" x="800" y="360">UNREGISTERED</text><text fill="#eeeeee" stroke="none" font-family="Arial" font-size="24px" font-style="normal" font-weight="normal" text-decoration="none" x="800" y="390">UNREGISTERED</text><text fill="#eeeeee" stroke="none" font-family="Arial" font-size="24px" font-style="normal" font-weight="normal" text-decoration="none" x="800" y="420">UNREGISTERED</text><text fill="#eeeeee" stroke="none" font-family="Arial" font-size="24px" font-style="normal" font-weight="normal" text-decoration="none" x="800" y="450">UNREGISTERED</text><text fill="#eeeeee" stroke="none" font-family="Arial" font-size="24px" font-style="normal" font-weight="normal" text-decoration="none" x="800" y="480">UNREGISTERED</text><text fill="#eeeeee" stroke="none" font-family="Arial" font-size="24px" font-style="normal" font-weight="normal" text-decoration="none" x="800" y="510">UNREGISTERED</text><text fill="#eeeeee" stroke="none" font-family="Arial" font-size="24px" font-style="normal" font-weight="normal" text-decoration="none" x="800" y="540">UNREGISTERED</text><text fill="#eeeeee" stroke="none" font-family="Arial" font-size="24px" font-style="normal" font-weight="normal" text-decoration="none" x="800" y="570">UNREGISTERED</text><text fill="#eeeeee" stroke="none" font-family="Arial" font-size="24px" font-style="normal" font-weight="normal" text-decoration="none" x="800" y="600">UNREGISTERED</text><text fill="#eeeeee" stroke="none" font-family="Arial" font-size="24px" font-style="normal" font-weight="normal" text-decoration="none" x="800" y="630">UNREGISTERED</text><text fill="#eeeeee" stroke="none" font-family="Arial" font-size="24px" font-style="normal" font-weight="normal" text-decoration="none" x="1000" y="0">UNREGISTERED</text><text fill="#eeeeee" stroke="none" font-family="Arial" font-size="24px" font-style="normal" font-weight="normal" text-decoration="none" x="1000" y="30">UNREGISTERED</text><text fill="#eeeeee" stroke="none" font-family="Arial" font-size="24px" font-style="normal" font-weight="normal" text-decoration="none" x="1000" y="60">UNREGISTERED</text><text fill="#eeeeee" stroke="none" font-family="Arial" font-size="24px" font-style="normal" font-weight="normal" text-decoration="none" x="1000" y="90">UNREGISTERED</text><text fill="#eeeeee" stroke="none" font-family="Arial" font-size="24px" font-style="normal" font-weight="normal" text-decoration="none" x="1000" y="120">UNREGISTERED</text><text fill="#eeeeee" stroke="none" font-family="Arial" font-size="24px" font-style="normal" font-weight="normal" text-decoration="none" x="1000" y="150">UNREGISTERED</text><text fill="#eeeeee" stroke="none" font-family="Arial" font-size="24px" font-style="normal" font-weight="normal" text-decoration="none" x="1000" y="180">UNREGISTERED</text><text fill="#eeeeee" stroke="none" font-family="Arial" font-size="24px" font-style="normal" font-weight="normal" text-decoration="none" x="1000" y="210">UNREGISTERED</text><text fill="#eeeeee" stroke="none" font-family="Arial" font-size="24px" font-style="normal" font-weight="normal" text-decoration="none" x="1000" y="240">UNREGISTERED</text><text fill="#eeeeee" stroke="none" font-family="Arial" font-size="24px" font-style="normal" font-weight="normal" text-decoration="none" x="1000" y="270">UNREGISTERED</text><text fill="#eeeeee" stroke="none" font-family="Arial" font-size="24px" font-style="normal" font-weight="normal" text-decoration="none" x="1000" y="300">UNREGISTERED</text><text fill="#eeeeee" stroke="none" font-family="Arial" font-size="24px" font-style="normal" font-weight="normal" text-decoration="none" x="1000" y="330">UNREGISTERED</text><text fill="#eeeeee" stroke="none" font-family="Arial" font-size="24px" font-style="normal" font-weight="normal" text-decoration="none" x="1000" y="360">UNREGISTERED</text><text fill="#eeeeee" stroke="none" font-family="Arial" font-size="24px" font-style="normal" font-weight="normal" text-decoration="none" x="1000" y="390">UNREGISTERED</text><text fill="#eeeeee" stroke="none" font-family="Arial" font-size="24px" font-style="normal" font-weight="normal" text-decoration="none" x="1000" y="420">UNREGISTERED</text><text fill="#eeeeee" stroke="none" font-family="Arial" font-size="24px" font-style="normal" font-weight="normal" text-decoration="none" x="1000" y="450">UNREGISTERED</text><text fill="#eeeeee" stroke="none" font-family="Arial" font-size="24px" font-style="normal" font-weight="normal" text-decoration="none" x="1000" y="480">UNREGISTERED</text><text fill="#eeeeee" stroke="none" font-family="Arial" font-size="24px" font-style="normal" font-weight="normal" text-decoration="none" x="1000" y="510">UNREGISTERED</text><text fill="#eeeeee" stroke="none" font-family="Arial" font-size="24px" font-style="normal" font-weight="normal" text-decoration="none" x="1000" y="540">UNREGISTERED</text><text fill="#eeeeee" stroke="none" font-family="Arial" font-size="24px" font-style="normal" font-weight="normal" text-decoration="none" x="1000" y="570">UNREGISTERED</text><text fill="#eeeeee" stroke="none" font-family="Arial" font-size="24px" font-style="normal" font-weight="normal" text-decoration="none" x="1000" y="600">UNREGISTERED</text><text fill="#eeeeee" stroke="none" font-family="Arial" font-size="24px" font-style="normal" font-weight="normal" text-decoration="none" x="1000" y="630">UNREGISTERED</text><text fill="#eeeeee" stroke="none" font-family="Arial" font-size="24px" font-style="normal" font-weight="normal" text-decoration="none" x="1200" y="0">UNREGISTERED</text><text fill="#eeeeee" stroke="none" font-family="Arial" font-size="24px" font-style="normal" font-weight="normal" text-decoration="none" x="1200" y="30">UNREGISTERED</text><text fill="#eeeeee" stroke="none" font-family="Arial" font-size="24px" font-style="normal" font-weight="normal" text-decoration="none" x="1200" y="60">UNREGISTERED</text><text fill="#eeeeee" stroke="none" font-family="Arial" font-size="24px" font-style="normal" font-weight="normal" text-decoration="none" x="1200" y="90">UNREGISTERED</text><text fill="#eeeeee" stroke="none" font-family="Arial" font-size="24px" font-style="normal" font-weight="normal" text-decoration="none" x="1200" y="120">UNREGISTERED</text><text fill="#eeeeee" stroke="none" font-family="Arial" font-size="24px" font-style="normal" font-weight="normal" text-decoration="none" x="1200" y="150">UNREGISTERED</text><text fill="#eeeeee" stroke="none" font-family="Arial" font-size="24px" font-style="normal" font-weight="normal" text-decoration="none" x="1200" y="180">UNREGISTERED</text><text fill="#eeeeee" stroke="none" font-family="Arial" font-size="24px" font-style="normal" font-weight="normal" text-decoration="none" x="1200" y="210">UNREGISTERED</text><text fill="#eeeeee" stroke="none" font-family="Arial" font-size="24px" font-style="normal" font-weight="normal" text-decoration="none" x="1200" y="240">UNREGISTERED</text><text fill="#eeeeee" stroke="none" font-family="Arial" font-size="24px" font-style="normal" font-weight="normal" text-decoration="none" x="1200" y="270">UNREGISTERED</text><text fill="#eeeeee" stroke="none" font-family="Arial" font-size="24px" font-style="normal" font-weight="normal" text-decoration="none" x="1200" y="300">UNREGISTERED</text><text fill="#eeeeee" stroke="none" font-family="Arial" font-size="24px" font-style="normal" font-weight="normal" text-decoration="none" x="1200" y="330">UNREGISTERED</text><text fill="#eeeeee" stroke="none" font-family="Arial" font-size="24px" font-style="normal" font-weight="normal" text-decoration="none" x="1200" y="360">UNREGISTERED</text><text fill="#eeeeee" stroke="none" font-family="Arial" font-size="24px" font-style="normal" font-weight="normal" text-decoration="none" x="1200" y="390">UNREGISTERED</text><text fill="#eeeeee" stroke="none" font-family="Arial" font-size="24px" font-style="normal" font-weight="normal" text-decoration="none" x="1200" y="420">UNREGISTERED</text><text fill="#eeeeee" stroke="none" font-family="Arial" font-size="24px" font-style="normal" font-weight="normal" text-decoration="none" x="1200" y="450">UNREGISTERED</text><text fill="#eeeeee" stroke="none" font-family="Arial" font-size="24px" font-style="normal" font-weight="normal" text-decoration="none" x="1200" y="480">UNREGISTERED</text><text fill="#eeeeee" stroke="none" font-family="Arial" font-size="24px" font-style="normal" font-weight="normal" text-decoration="none" x="1200" y="510">UNREGISTERED</text><text fill="#eeeeee" stroke="none" font-family="Arial" font-size="24px" font-style="normal" font-weight="normal" text-decoration="none" x="1200" y="540">UNREGISTERED</text><text fill="#eeeeee" stroke="none" font-family="Arial" font-size="24px" font-style="normal" font-weight="normal" text-decoration="none" x="1200" y="570">UNREGISTERED</text><text fill="#eeeeee" stroke="none" font-family="Arial" font-size="24px" font-style="normal" font-weight="normal" text-decoration="none" x="1200" y="600">UNREGISTERED</text><text fill="#eeeeee" stroke="none" font-family="Arial" font-size="24px" font-style="normal" font-weight="normal" text-decoration="none" x="1200" y="630">UNREGISTERED</text><g transform="translate(5,10) scale(1,1)"><path fill="none" stroke="#000000" d="M 5 0 L 1320 0 L 1320 627 L 5 627 L 5 0" stroke-miterlimit="10"/></g><g transform="translate(5,10) scale(1,1)"><path fill="#ffffff" stroke="none" d="M 5 0 L 5 22 L 234.89697265625 22 L 245.89697265625 11 L 245.89697265625 0 L 5 0"/></g><g transform="translate(5,10) scale(1,1)"><path fill="none" stroke="#000000" d="M 5 0 L 5 22 L 234.89697265625 22 L 245.89697265625 11 L 245.89697265625 0 L 5 0 L 5 0" stroke-miterlimit="10"/></g><g transform="translate(5,10) scale(1,1)"><g><path fill="none" stroke="none"/><text fill="#000000" stroke="none" font-family="Arial" font-size="13px" font-style="normal" font-weight="normal" text-decoration="none" x="75.97900390625" y="17.5">SequenceServerFirstLogin</text></g></g><g transform="translate(5,10) scale(1,1)"><g><path fill="none" stroke="none"/><text fill="#000000" stroke="none" font-family="Arial" font-size="13px" font-style="normal" font-weight="bold" text-decoration="none" x="10" y="17.5">interaction</text></g></g><g transform="translate(5,10) scale(1,1)"><rect fill="#C0C0C0" stroke="none" x="87" y="47" width="202.19970703125" height="39" opacity="0.2"/></g><g transform="translate(5,10) scale(1,1)"><rect fill="#ffffff" stroke="none" x="80" y="40" width="202.19970703125" height="39"/></g><g transform="translate(5,10) scale(1,1)"><path fill="none" stroke="#000000" d="M 80 40 L 282.19970703125 40 L 282.19970703125 79 L 80 79 L 80 40 Z Z" stroke-miterlimit="10"/></g><g transform="translate(5,10) scale(1,1)"><g><path fill="none" stroke="none"/><text fill="#000000" stroke="none" font-family="Arial" font-size="13px" font-style="normal" font-weight="bold" text-decoration="none" x="96.90771484375" y="59.5">Lifeline1: ConnectionToClient</text></g></g><g transform="translate(5,10) scale(1,1)"><path fill="none" stroke="#000000" d="M 182.5 80 L 182.5 432" stroke-miterlimit="10" stroke-dasharray="3"/></g><g transform="translate(5,10) scale(1,1)"><rect fill="#C0C0C0" stroke="none" x="431" y="47" width="253.80615234375" height="39" opacity="0.2"/></g><g transform="translate(5,10) scale(1,1)"><rect fill="#ffffff" stroke="none" x="424" y="40" width="253.80615234375" height="39"/></g><g transform="translate(5,10) scale(1,1)"><path fill="none" stroke="#000000" d="M 424 40 L 677.80615234375 40 L 677.80615234375 79 L 424 79 L 424 40 Z Z" stroke-miterlimit="10"/></g><g transform="translate(5,10) scale(1,1)"><g><path fill="none" stroke="none"/><text fill="#000000" stroke="none" font-family="Arial" font-size="13px" font-style="normal" font-weight="bold" text-decoration="none" x="442.155029296875" y="59.5">Lifeline2: ObservableOriginatorServer</text></g></g><g transform="translate(5,10) scale(1,1)"><path fill="none" stroke="#000000" d="M 551.5 80 L 551.5 432" stroke-miterlimit="10" stroke-dasharray="3"/></g><g transform="translate(5,10) scale(1,1)"><rect fill="#C0C0C0" stroke="none" x="743" y="47" width="168.56982421875" height="39" opacity="0.2"/></g><g transform="translate(5,10) scale(1,1)"><rect fill="#ffffff" stroke="none" x="736" y="40" width="168.56982421875" height="39"/></g><g transform="translate(5,10) scale(1,1)"><path fill="none" stroke="#000000" d="M 736 40 L 904.56982421875 40 L 904.56982421875 79 L 736 79 L 736 40 Z Z" stroke-miterlimit="10"/></g><g transform="translate(5,10) scale(1,1)"><g><path fill="none" stroke="none"/><text fill="#000000" stroke="none" font-family="Arial" font-size="13px" font-style="normal" font-weight="bold" text-decoration="none" x="750.19091796875" y="59.5">Lifeline3: GeneralServer</text></g></g><g transform="translate(5,10) scale(1,1)"><path fill="none" stroke="#000000" d="M 821.5 80 L 821.5 432" stroke-miterlimit="10" stroke-dasharray="3"/></g><g transform="translate(5,10) scale(1,1)"><rect fill="#C0C0C0" stroke="none" x="1087" y="47" width="204.67529296875" height="39" opacity="0.2"/></g><g transform="translate(5,10) scale(1,1)"><rect fill="#ffffff" stroke="none" x="1080" y="40" width="204.67529296875" height="39"/></g><g transform="translate(5,10) scale(1,1)"><path fill="none" stroke="#000000" d="M 1080 40 L 1284.67529296875 40 L 1284.67529296875 79 L 1080 79 L 1080 40 Z Z" stroke-miterlimit="10"/></g><g transform="translate(5,10) scale(1,1)"><g><path fill="none" stroke="none"/><text fill="#000000" stroke="none" font-family="Arial" font-size="13px" font-style="normal" font-weight="bold" text-decoration="none" x="1094.552734375" y="59.5">Lifeline4: SQLServerDAOUser</text></g></g><g transform="translate(5,10) scale(1,1)"><path fill="none" stroke="#000000" d="M 1183.5 80 L 1183.5 432" stroke-miterlimit="10" stroke-dasharray="3"/></g><g transform="translate(5,10) scale(1,1)"><path fill="none" stroke="#000000" d="M 104 192 L 1232 192 L 1232 264 L 104 264 L 104 192" stroke-miterlimit="10"/></g><g transform="translate(5,10) scale(1,1)"><path fill="#ffffff" stroke="none" d="M 104 192 L 104 214 L 222.5908203125 214 L 233.5908203125 203 L 233.5908203125 192 L 104 192"/></g><g transform="translate(5,10) scale(1,1)"><path fill="none" stroke="#000000" d="M 104 192 L 104 214 L 222.5908203125 214 L 233.5908203125 203 L 233.5908203125 192 L 104 192 L 104 192" stroke-miterlimit="10"/></g><g transform="translate(5,10) scale(1,1)"><g><path fill="none" stroke="none"/><text fill="#000000" stroke="none" font-family="Arial" font-size="13px" font-style="normal" font-weight="normal" text-decoration="none" x="128.72998046875" y="209.5">isPasswordNull</text></g></g><g transform="translate(5,10) scale(1,1)"><g><path fill="none" stroke="none"/><text fill="#000000" stroke="none" font-family="Arial" font-size="13px" font-style="normal" font-weight="bold" text-decoration="none" x="109" y="209.5">alt</text></g></g><g transform="translate(5,10) scale(1,1)"><g><path fill="none" stroke="none"/><text fill="#000000" stroke="none" font-family="Arial" font-size="13px" font-style="normal" font-weight="normal" text-decoration="none" x="123.5" y="242.5">[if isPwdNull returns true]</text></g></g><g transform="translate(5,10) scale(1,1)"><path fill="none" stroke="#000000" d="M 182 104 L 544 104" stroke-miterlimit="10"/></g><g transform="translate(5,10) scale(1,1)"><path fill="#000000" stroke="none" d="M 533.8373251423759 108.20951775601598 L 544 104 L 533.8373251423758 99.79048224398402"/></g><g transform="translate(5,10) scale(1,1)"><path fill="none" stroke="#000000" d="M 533.8373251423759 108.20951775601598 L 544 104 L 533.8373251423758 99.79048224398402 L 533.8373251423759 108.20951775601598" stroke-miterlimit="10"/></g><g transform="translate(5,10) scale(1,1)"><g><path fill="none" stroke="none"/><text fill="#000000" stroke="none" font-family="Arial" font-size="13px" font-style="normal" font-weight="normal" text-decoration="none" x="245.5" y="100.5">1 : handleMessageFromClient(message)</text></g></g><g transform="translate(5,10) scale(1,1)"><rect fill="#ffffff" stroke="none" x="544" y="104" width="13" height="28"/></g><g transform="translate(5,10) scale(1,1)"><path fill="none" stroke="#000000" d="M 544 104 L 557 104 L 557 132 L 544 132 L 544 104 Z Z" stroke-miterlimit="10"/></g><g transform="translate(5,10) scale(1,1)"><path fill="none" stroke="#000000" d="M 557 112 L 814 112" stroke-miterlimit="10"/></g><g transform="translate(5,10) scale(1,1)"><path fill="#000000" stroke="none" d="M 803.8373251423759 116.20951775601598 L 814 112 L 803.8373251423758 107.79048224398402"/></g><g transform="translate(5,10) scale(1,1)"><path fill="none" stroke="#000000" d="M 803.8373251423759 116.20951775601598 L 814 112 L 803.8373251423758 107.79048224398402 L 803.8373251423759 116.20951775601598" stroke-miterlimit="10"/></g><g transform="translate(5,10) scale(1,1)"><g><path fill="none" stroke="none"/><text fill="#000000" stroke="none" font-family="Arial" font-size="13px" font-style="normal" font-weight="normal" text-decoration="none" x="634.5" y="108.5">2 : update(object)</text></g></g><g transform="translate(5,10) scale(1,1)"><rect fill="#ffffff" stroke="none" x="814" y="112" width="13" height="28"/></g><g transform="translate(5,10) scale(1,1)"><path fill="none" stroke="#000000" d="M 814 112 L 827 112 L 827 140 L 814 140 L 814 112 Z Z" stroke-miterlimit="10"/></g><g transform="translate(5,10) scale(1,1)"><path fill="none" stroke="#000000" d="M 827 120 L 857 120 L 857 140 L 834 140" stroke-miterlimit="10"/></g><g transform="translate(5,10) scale(1,1)"><path fill="#000000" stroke="none" d="M 844.1626748576241 135.790482243984 L 834 140 L 844.1626748576241 144.209517756016"/></g><g transform="translate(5,10) scale(1,1)"><path fill="none" stroke="#000000" d="M 844.1626748576241 135.790482243984 L 834 140 L 844.1626748576241 144.209517756016 L 844.1626748576241 135.790482243984" stroke-miterlimit="10"/></g><g transform="translate(5,10) scale(1,1)"><g><path fill="none" stroke="none"/><text fill="#000000" stroke="none" font-family="Arial" font-size="13px" font-style="normal" font-weight="normal" text-decoration="none" x="830.5" y="116.5">3 : handleFirstConnectionFromClient(login, password)</text></g></g><g transform="translate(5,10) scale(1,1)"><rect fill="#ffffff" stroke="none" x="821" y="140" width="13" height="28"/></g><g transform="translate(5,10) scale(1,1)"><path fill="none" stroke="#000000" d="M 821 140 L 834 140 L 834 168 L 821 168 L 821 140 Z Z" stroke-miterlimit="10"/></g><g transform="translate(5,10) scale(1,1)"><path fill="none" stroke="#000000" d="M 834 152 L 1176 152" stroke-miterlimit="10"/></g><g transform="translate(5,10) scale(1,1)"><path fill="#000000" stroke="none" d="M 1165.837325142376 156.209517756016 L 1176 152 L 1165.837325142376 147.790482243984"/></g><g transform="translate(5,10) scale(1,1)"><path fill="none" stroke="#000000" d="M 1165.837325142376 156.209517756016 L 1176 152 L 1165.837325142376 147.790482243984 L 1165.837325142376 156.209517756016" stroke-miterlimit="10"/></g><g transform="translate(5,10) scale(1,1)"><g><path fill="none" stroke="none"/><text fill="#000000" stroke="none" font-family="Arial" font-size="13px" font-style="normal" font-weight="normal" text-decoration="none" x="949.5" y="148.5">4 : isPwdNull(login)</text></g></g><g transform="translate(5,10) scale(1,1)"><rect fill="#ffffff" stroke="none" x="1176" y="152" width="13" height="40"/></g><g transform="translate(5,10) scale(1,1)"><path fill="none" stroke="#000000" d="M 1176 152 L 1189 152 L 1189 192 L 1176 192 L 1176 152 Z Z" stroke-miterlimit="10"/></g><g transform="translate(5,10) scale(1,1)"><path fill="none" stroke="#000000" d="M 1176 179 L 827 179" stroke-miterlimit="10"/></g><g transform="translate(5,10) scale(1,1)"><path fill="#000000" stroke="none" d="M 837.1626748576241 174.790482243984 L 827 179 L 837.1626748576241 183.209517756016"/></g><g transform="translate(5,10) scale(1,1)"><path fill="none" stroke="#000000" d="M 837.1626748576241 174.790482243984 L 827 179 L 837.1626748576241 183.209517756016 L 837.1626748576241 174.790482243984" stroke-miterlimit="10"/></g><g transform="translate(5,10) scale(1,1)"><g><path fill="none" stroke="none"/><text fill="#000000" stroke="none" font-family="Arial" font-size="13px" font-style="normal" font-weight="normal" text-decoration="none" x="940.5" y="179.5">5 : return true || false</text></g></g><g transform="translate(5,10) scale(1,1)"><rect fill="#ffffff" stroke="none" x="814" y="179" width="13" height="181"/></g><g transform="translate(5,10) scale(1,1)"><path fill="none" stroke="#000000" d="M 814 179 L 827 179 L 827 360 L 814 360 L 814 179 Z Z" stroke-miterlimit="10"/></g><g transform="translate(5,10) scale(1,1)"><path fill="none" stroke="#000000" d="M 827 216 L 1176 216" stroke-miterlimit="10"/></g><g transform="translate(5,10) scale(1,1)"><path fill="#000000" stroke="none" d="M 1165.837325142376 220.209517756016 L 1176 216 L 1165.837325142376 211.790482243984"/></g><g transform="translate(5,10) scale(1,1)"><path fill="none" stroke="#000000" d="M 1165.837325142376 220.209517756016 L 1176 216 L 1165.837325142376 211.790482243984 L 1165.837325142376 220.209517756016" stroke-miterlimit="10"/></g><g transform="translate(5,10) scale(1,1)"><g><path fill="none" stroke="none"/><text fill="#000000" stroke="none" font-family="Arial" font-size="13px" font-style="normal" font-weight="normal" text-decoration="none" x="892.5" y="212.5">6 : setNewPassword(login, password)</text></g></g><g transform="translate(5,10) scale(1,1)"><rect fill="#ffffff" stroke="none" x="1176" y="216" width="13" height="28"/></g><g transform="translate(5,10) scale(1,1)"><path fill="none" stroke="#000000" d="M 1176 216 L 1189 216 L 1189 244 L 1176 244 L 1176 216 Z Z" stroke-miterlimit="10"/></g><g transform="translate(5,10) scale(1,1)"><path fill="none" stroke="#000000" d="M 1176 240 L 834 240" stroke-miterlimit="10"/></g><g transform="translate(5,10) scale(1,1)"><path fill="#000000" stroke="none" d="M 844.1626748576241 235.790482243984 L 834 240 L 844.1626748576241 244.209517756016"/></g><g transform="translate(5,10) scale(1,1)"><path fill="none" stroke="#000000" d="M 844.1626748576241 235.790482243984 L 834 240 L 844.1626748576241 244.209517756016 L 844.1626748576241 235.790482243984" stroke-miterlimit="10"/></g><g transform="translate(5,10) scale(1,1)"><g><path fill="none" stroke="none"/><text fill="#000000" stroke="none" font-family="Arial" font-size="13px" font-style="normal" font-weight="normal" text-decoration="none" x="944.5" y="256.5">7 : return true || false</text></g></g><g transform="translate(5,10) scale(1,1)"><rect fill="#ffffff" stroke="none" x="821" y="240" width="13" height="28"/></g><g transform="translate(5,10) scale(1,1)"><path fill="none" stroke="#000000" d="M 821 240 L 834 240 L 834 268 L 821 268 L 821 240 Z Z" stroke-miterlimit="10"/></g><g transform="translate(5,10) scale(1,1)"><path fill="none" stroke="#000000" d="M 827 296 L 857 296 L 857 316 L 834 316" stroke-miterlimit="10"/></g><g transform="translate(5,10) scale(1,1)"><path fill="#000000" stroke="none" d="M 844.1626748576241 311.790482243984 L 834 316 L 844.1626748576241 320.209517756016"/></g><g transform="translate(5,10) scale(1,1)"><path fill="none" stroke="#000000" d="M 844.1626748576241 311.790482243984 L 834 316 L 844.1626748576241 320.209517756016 L 844.1626748576241 311.790482243984" stroke-miterlimit="10"/></g><g transform="translate(5,10) scale(1,1)"><g><path fill="none" stroke="none"/><text fill="#000000" stroke="none" font-family="Arial" font-size="13px" font-style="normal" font-weight="normal" text-decoration="none" x="839.5" y="292.5">8 : sendToClientFirstConn(hasSucceeded, client)</text></g></g><g transform="translate(5,10) scale(1,1)"><rect fill="#ffffff" stroke="none" x="821" y="316" width="13" height="28"/></g><g transform="translate(5,10) scale(1,1)"><path fill="none" stroke="#000000" d="M 821 316 L 834 316 L 834 344 L 821 344 L 821 316 Z Z" stroke-miterlimit="10"/></g><g transform="translate(5,10) scale(1,1)"><path fill="none" stroke="#000000" d="M 814 355 L 188 355" stroke-miterlimit="10"/></g><g transform="translate(5,10) scale(1,1)"><path fill="#000000" stroke="none" d="M 198.16267485762415 350.790482243984 L 188 355 L 198.16267485762415 359.209517756016"/></g><g transform="translate(5,10) scale(1,1)"><path fill="none" stroke="#000000" d="M 198.16267485762415 350.790482243984 L 188 355 L 198.16267485762415 359.209517756016 L 198.16267485762415 350.790482243984" stroke-miterlimit="10"/></g><g transform="translate(5,10) scale(1,1)"><g><path fill="none" stroke="none"/><text fill="#000000" stroke="none" font-family="Arial" font-size="13px" font-style="normal" font-weight="normal" text-decoration="none" x="390.5" y="371.5">9 : sendToClient(message)</text></g></g><g transform="translate(5,10) scale(1,1)"><rect fill="#ffffff" stroke="none" x="175" y="355" width="13" height="28"/></g><g transform="translate(5,10) scale(1,1)"><path fill="none" stroke="#000000" d="M 175 355 L 188 355 L 188 383 L 175 383 L 175 355 Z Z" stroke-miterlimit="10"/></g></g></svg>